<mxfile host="app.diagrams.net" modified="2024-04-26T03:39:13.077Z" agent="Mozilla/5.0 (Windows NT 10.0; Win64; x64) AppleWebKit/537.36 (KHTML, like Gecko) Chrome/123.0.0.0 Safari/537.36" version="24.2.3" etag="bDdvuLQN6TE4CC44Rffu" type="github">
  <diagram name="第 1 页" id="aYCq1aCQSQ22QESxxsIb">
    <mxGraphModel>
      <root>
        <mxCell id="0" />
        <mxCell id="1" parent="0" />
      </root>
    </mxGraphModel>
  </diagram>
</mxfile>
